<svg width="150" height="150" viewBox="0 0 150 150" fill="none" xmlns="http://www.w3.org/2000/svg">
<g clip-path="url(#clip0_1_4)">
<rect width="150" height="150" rx="75" fill="white"/>
<rect width="150" height="150" fill="white"/>
<path d="M71.48 53.2L52.28 106H39.4L20.12 53.2H31.8L42.92 86.8L45.96 97.2L48.92 86.88L60.12 53.2H71.48Z" fill="#E2542D"/>
<path d="M124.674 91.44C123.66 94.8533 122.06 97.7067 119.874 100C117.687 102.293 115.1 104 112.114 105.12C109.127 106.24 105.847 106.8 102.274 106.8C97.0471 106.8 92.5138 105.707 88.6738 103.52C84.8871 101.333 81.9538 98.2133 79.8738 94.16C77.8471 90.1067 76.8338 85.2533 76.8338 79.6C76.8338 73.9467 77.8471 69.0933 79.8738 65.04C81.9538 60.9867 84.8871 57.8667 88.6738 55.68C92.5138 53.4933 96.9938 52.4 102.114 52.4C105.74 52.4 109.02 52.9067 111.954 53.92C114.887 54.88 117.367 56.3733 119.394 58.4C121.474 60.4267 122.994 62.9867 123.954 66.08L113.954 70.32C113.047 67.12 111.66 64.8533 109.794 63.52C107.927 62.1333 105.527 61.44 102.594 61.44C99.7138 61.44 97.1804 62.1333 94.9938 63.52C92.8604 64.9067 91.2071 66.96 90.0338 69.68C88.8604 72.3467 88.2738 75.6533 88.2738 79.6C88.2738 83.4933 88.8071 86.8 89.8738 89.52C90.9938 92.24 92.6204 94.2933 94.7538 95.68C96.8871 97.0667 99.5004 97.76 102.594 97.76C105.474 97.76 107.954 96.9867 110.034 95.44C112.167 93.8933 113.66 91.5467 114.514 88.4L124.674 91.44Z" fill="#121212"/>
</g>
<defs>
<clipPath id="clip0_1_4">
<rect width="150" height="150" rx="75" fill="white"/>
</clipPath>
</defs>
</svg>
